{
  "accessors": [
    {
      "bufferView": 2,
      "componentType": 5126,
      "count": 859,
      "max": [
        0.022258369252085686,
        0.022361377254128456,
        0.013097959570586681
      ],
      "min": [
        -0.02209731936454773,
        -0.021994292736053467,
        -0.0047339401207864285
      ],
      "type": "VEC3"
    },
    {
      "bufferView": 2,
      "byteOffset": 10308,
      "componentType": 5126,
      "count": 859,
      "max": [
        0.9608941674232483,
        0.9626249670982361,
        0.9994264841079712
      ],
      "min": [
        -0.9608941674232483,
        -0.9626248478889465,
        -0.9715863466262817
      ],
      "type": "VEC3"
    },
    {
      "bufferView": 1,
      "componentType": 5126,
      "count": 859,
      "max": [
        0.9886549711227417,
        0.9862992167472839
      ],
      "min": [
        0.3487645089626312,
        0.018642470240592957
      ],
      "type": "VEC2"
    },
    {
      "bufferView": 0,
      "componentType": 5125,
      "count": 2364,
      "type": "SCALAR"
    }
  ],
  "asset": {
    "extras": {
      "author": "JuiceV2 (https://sketchfab.com/JuiceV2)",
      "license": "CC-BY-4.0 (http://creativecommons.org/licenses/by/4.0/)",
      "source": "https://sketchfab.com/3d-models/mexican-sombrero-6fef37f6c61f4ca398e96eac1127253f",
      "title": "Mexican Sombrero"
    },
    "generator": "Sketchfab-12.66.0",
    "version": "2.0"
  },
  "bufferViews": [
    {
      "buffer": 0,
      "byteLength": 9456,
      "name": "floatBufferViews",
      "target": 34963
    },
    {
      "buffer": 0,
      "byteLength": 6872,
      "byteOffset": 9456,
      "byteStride": 8,
      "name": "floatBufferViews",
      "target": 34962
    },
    {
      "buffer": 0,
      "byteLength": 20616,
      "byteOffset": 16328,
      "byteStride": 12,
      "name": "floatBufferViews",
      "target": 34962
    }
  ],
  "buffers": [
    {
      "byteLength": 36944,
      "uri": "scene.bin"
    }
  ],
  "images": [
    {
      "uri": "textures/Sombrero_baseColor.png"
    }
  ],
  "materials": [
    {
      "doubleSided": true,
      "name": "Sombrero",
      "pbrMetallicRoughness": {
        "baseColorTexture": {
          "index": 0
        },
        "metallicFactor": 0.0,
        "roughnessFactor": 0.8211145618000169
      }
    }
  ],
  "meshes": [
    {
      "name": "Mexican Sombrero_Sombrero_0",
      "primitives": [
        {
          "attributes": {
            "NORMAL": 1,
            "POSITION": 0,
            "TEXCOORD_0": 2
          },
          "indices": 3,
          "material": 0,
          "mode": 4
        }
      ]
    }
  ],
  "nodes": [
    {
      "children": [
        1
      ],
      "matrix": [
        1.0,
        0.0,
        0.0,
        0.0,
        0.0,
        2.220446049250313e-16,
        -1.0,
        0.0,
        0.0,
        1.0,
        2.220446049250313e-16,
        0.0,
        0.0,
        0.0,
        0.0,
        1.0
      ],
      "name": "Sketchfab_model"
    },
    {
      "children": [
        2
      ],
      "matrix": [
        0.009999999776482582,
        0.0,
        0.0,
        0.0,
        0.0,
        0.0,
        0.009999999776482582,
        0.0,
        0.0,
        -0.009999999776482582,
        0.0,
        0.0,
        0.0,
        0.0,
        0.0,
        1.0
      ],
      "name": "Mexican Sombrero.fbx"
    },
    {
      "children": [
        3
      ],
      "name": "RootNode"
    },
    {
      "children": [
        4
      ],
      "matrix": [
        9999.998046875,
        -5.183752067111096e-07,
        4.65633085516776e-05,
        0.0,
        4.6566209331112714e-05,
        114.77415343342197,
        -9999.343276246069,
        0.0,
        -1.6085271369512457e-08,
        9999.343276246069,
        114.77415343342197,
        0.0,
        3.222031831741333,
        152.40834045410156,
        -2.2351689210609038e-07,
        1.0
      ],
      "name": "Mexican Sombrero"
    },
    {
      "mesh": 0,
      "name": "Mexican Sombrero_Sombrero_0"
    }
  ],
  "samplers": [
    {
      "magFilter": 9729,
      "minFilter": 9987,
      "wrapS": 10497,
      "wrapT": 10497
    }
  ],
  "scene": 0,
  "scenes": [
    {
      "name": "Sketchfab_Scene",
      "nodes": [
        0
      ]
    }
  ],
  "textures": [
    {
      "sampler": 0,
      "source": 0
    }
  ]
}
